# xmcd CD database file
# Copyright (C) 1993-1998 Ti Kan
#
# Track frame offsets:
#	150
#	22892
#	50180
#	73782
#	99580
#	116932
#	141125
#	154185
#	162067
#	173045
#	185465
#	192577
#	201810
#	207840
#	222852
#
# Disc length: 3283 seconds
#
# Revision: 1
# Processed by: cddbd v1.4b41PL1 Copyright (c) Steve Scherf et al.
# Submitted via: QuintessentialCD v1.1 (c) 1998 Paul Quinn
#
DISCID=df0cd10f
DTITLE=Ann Peebles - Fill this world whith love
DYEAR=1900
DGENRE=
TTITLE0=I´m Yours
TTITLE1=Fill This World Whith Love
TTITLE2=When I´m Over You
TTITLE3=Stand Up
TTITLE4=Friends
TTITLE5=I Don´t Think That I Can Last Tonight
TTITLE6=Fired Up
TTITLE7=Walk Away
TTITLE8=Give Me Some Credit Where It´s Due
TTITLE9=I´d Rather Leave While I´m In Love
TTITLE10=I Pity The Fool
TTITLE11=Bip Bam Thank You Ma´am
TTITLE12=Ninety-nine Pounds
TTITLE13=One Way Street
TTITLE14=I Wouldn´t Take Nothing For One Moment I´ve Spent With You
EXTD=
EXTT0=
EXTT1=
EXTT2=
EXTT3=
EXTT4=
EXTT5=
EXTT6=
EXTT7=
EXTT8=
EXTT9=
EXTT10=
EXTT11=
EXTT12=
EXTT13=
EXTT14=
PLAYORDER=
